<svg width="15" height="15" viewBox="0 0 15 15" fill="none" xmlns="http://www.w3.org/2000/svg">
<g clip-path="url(#clip0_193_29)">
<path d="M10.9429 1.77673C9.30672 0.866624 7.42156 0.639098 5.62176 1.15103C3.82197 1.65586 2.32806 2.83615 1.41038 4.46439C0.257942 6.51924 0.229487 9.05758 1.32502 11.1409L0.819934 14.5822L4.26302 14.0845C5.29453 14.6249 6.4114 14.888 7.50693 14.888C9.96119 14.888 12.3514 13.5939 13.6319 11.3044C15.5242 7.93417 14.3149 3.66094 10.9429 1.77673ZM12.7071 10.7783C11.1065 13.6366 7.48558 14.6604 4.62583 13.0606L4.46932 12.9753L2.08619 13.3237L2.43477 10.9489L2.34941 10.7925C1.34636 9.00781 1.34636 6.78232 2.34941 4.99766C3.12481 3.61116 4.39107 2.61574 5.91343 2.18201C7.4429 1.74829 9.04351 1.94027 10.4236 2.71528C13.2762 4.30086 14.3006 7.92706 12.7071 10.7783Z" fill="white"/>
</g>
<defs>
<clipPath id="clip0_193_29">
<rect width="14" height="14" fill="white" transform="translate(0.52832 0.880859)"/>
</clipPath>
</defs>
</svg>
