<svg width="142" height="29" viewBox="0 0 142 29" fill="none" xmlns="http://www.w3.org/2000/svg">
<g clip-path="url(#clip0_87_51)">
<path d="M28.5332 21.053L28.5318 21.0544C28.1306 20.8458 27.6781 20.6111 27.2328 20.3803C27.2214 20.3737 27.2086 20.3685 27.1972 20.3619C25.3405 19.4151 23.0342 18.2388 22.7923 18.1116C22.3839 17.8965 22.31 17.7615 21.654 16.7386C20.9967 15.7157 19.3619 13.7919 18.7629 13.2398C18.3119 12.8241 17.5194 12.331 17.0755 12.0753C16.697 11.8458 16.4865 11.1167 16.3883 10.6642C16.3698 10.5462 16.3485 10.4256 16.3214 10.3036C16.32 10.2957 16.32 10.2918 16.32 10.2918H16.3186C16.2247 9.86823 16.0682 9.43285 15.7936 9.08402H15.795C15.795 9.08402 14.8289 7.73591 12.6264 7.89197C12.2608 7.9182 11.861 7.98377 11.4242 8.10704L11.6262 9.20335L11.6575 9.37121L10.2703 10.0846C10.2703 10.0846 10.6118 10.3561 10.9475 10.8059C11.198 11.1416 11.4441 11.5783 11.5423 12.074C11.5537 12.4385 11.585 12.9526 11.6518 13.683C11.8567 15.9032 12.8199 17.2094 14.0322 18.3122C14.469 18.7096 15.0224 18.985 15.6257 19.1725C15.6513 19.2918 15.7324 19.4768 15.9828 19.5895L12.7132 21.9277H13.4332L16.357 19.6787C16.6544 19.6958 16.8166 19.5686 16.9048 19.4413C17.6105 19.5318 18.3261 19.5449 18.965 19.524C19.3264 19.5122 19.6394 19.4872 19.9083 19.4571C19.9865 19.5777 20.1089 19.7259 20.2654 19.7561C20.2697 19.7574 20.2754 19.7574 20.2796 19.7587L18.9607 22.0536L19.6849 21.9736L20.9099 19.722C21.1191 19.6472 21.2813 19.4899 21.2414 19.1738L24.8852 20.9927V20.9914L28.4208 22.7106L29.6928 22.4693C29.542 22.4011 29.3912 22.333 29.2418 22.2621C29.2404 22.2621 29.2404 22.2608 29.2389 22.2608C29.0896 22.1913 28.9416 22.1205 28.7936 22.0484C28.5076 21.9094 28.2245 21.7677 27.9428 21.6209C27.9328 21.6156 27.9243 21.6117 27.9143 21.6064C27.7977 21.5461 27.9029 21.3809 28.0182 21.4412C28.041 21.453 28.0651 21.4648 28.0879 21.4766C28.4265 21.6523 28.7694 21.8228 29.1137 21.9867C29.2631 22.0589 29.4139 22.1284 29.5662 22.1979C29.7184 22.2674 29.8707 22.3369 30.0229 22.4038L30.9164 22.2346C30.9164 22.2346 30.8481 22.2005 30.7272 22.1376L28.5332 21.053ZM13.2155 9.25188C13.022 9.25188 12.8655 9.10762 12.8655 8.92927C12.8655 8.87813 12.8797 8.83092 12.9025 8.78765C12.9594 8.68011 13.0775 8.60667 13.2155 8.60667C13.3634 8.60667 13.4901 8.69191 13.5413 8.81256C13.5569 8.84928 13.5655 8.88862 13.5655 8.92927C13.5669 9.10762 13.409 9.25188 13.2155 9.25188Z" fill="#261615"/>
<path d="M29.1223 21.9907L28.7993 22.051C28.9473 22.1232 29.0952 22.194 29.2446 22.2635C29.2461 22.2635 29.2461 22.2648 29.2475 22.2648C29.3969 22.3343 29.5477 22.4038 29.6985 22.472L30.0314 22.4091C29.8778 22.3409 29.7255 22.2727 29.5747 22.2032C29.4239 22.1337 29.2731 22.0628 29.1223 21.9907Z" fill="white"/>
<path d="M29.6985 22.4718C29.5477 22.4037 29.3969 22.3355 29.2475 22.2646C29.3969 22.3355 29.5477 22.4037 29.6985 22.4718Z" fill="white"/>
<path d="M30.0329 22.409C29.8792 22.3408 29.727 22.2726 29.5762 22.2031C29.727 22.2726 29.8792 22.3408 30.0329 22.409Z" fill="white"/>
<path d="M29.2461 22.2635C29.0967 22.194 28.9487 22.1232 28.8007 22.051C28.9487 22.1232 29.0967 22.194 29.2461 22.2635Z" fill="white"/>
<path d="M18.0985 13.6305C18.0985 13.6305 17.4554 13.0378 17.0029 13.0116C16.5505 12.9853 16.1421 13.0522 16.0682 13.6305C15.9942 14.2089 17.3529 14.7334 18.0245 15.0298C18.6961 15.3262 19.6024 15.3498 18.0985 13.6305Z" fill="white"/>
<path d="M13.5954 17.318C13.5954 17.318 14.9826 17.4925 15.5958 17.1974C16.209 16.901 16.4865 16.5378 16.559 16.2558C16.6316 15.9739 16.7198 15.8257 16.7198 15.8257C16.7198 15.8257 17.4056 16.3096 17.7997 16.404C18.1938 16.4984 18.1938 16.4984 18.1938 16.4984C18.1938 16.4984 18.6178 17.5213 19.1428 17.9659C19.6678 18.4104 20.2668 18.7055 20.3977 18.733C20.5286 18.7606 19.6806 19.2169 18.5424 19.2169C17.4042 19.2169 15.085 19.2287 13.5954 17.318Z" fill="white"/>
<path d="M11.1154 8.10693L8.8902 8.37314L8.89304 8.37708L11.3289 9.10621L11.1154 8.10693Z" fill="#261615"/>
<path d="M8.4221 10.7731L7.00642 10.6577C6.82004 10.6419 6.68203 10.4911 6.6991 10.3193L6.90256 8.2067C6.91963 8.0349 7.08326 7.9077 7.26964 7.92344L8.68532 8.03884C8.8717 8.05457 9.00971 8.20538 8.99264 8.37718L8.7906 10.4911C8.77211 10.6616 8.60849 10.7888 8.4221 10.7731Z" fill="white"/>
<path d="M17.767 13.3642C17.767 13.3642 19.0418 14.37 19.6266 15.6132C20.2113 16.8564 16.2033 14.5956 16.0653 13.9504C15.9273 13.3052 16.4608 13.0652 16.4608 13.0652" fill="white"/>
<path d="M8.30543 22.1112C8.88593 22.1177 10.1423 22.123 12.8797 22.123C15.3056 22.123 18.8938 22.119 24.2051 22.1072C24.3289 21.9971 24.4498 21.883 24.5694 21.7676C18.9707 21.7794 8.79203 21.7938 7.93551 21.7715C8.05502 21.8856 8.17881 21.9997 8.30543 22.1112Z" fill="#261615"/>
<path d="M24.7899 22.0458C24.8354 22.0025 24.8795 21.9605 24.9251 21.916C25.0403 21.8019 25.1499 21.6865 25.2594 21.5697C25.1442 21.5147 25.0318 21.4596 24.9251 21.4084C24.8368 21.5016 24.7486 21.5934 24.6562 21.6852C24.6277 21.7127 24.5992 21.7402 24.5708 21.7678C24.6448 21.7678 24.7188 21.7678 24.7913 21.7678L24.7899 22.0458Z" fill="black"/>
<path d="M28.953 14.3347C28.9174 13.7787 28.7026 13.2699 28.2729 12.7335C28.0708 12.4804 27.8617 12.2181 27.7806 11.9454C27.3722 10.5605 26.8216 9.41045 26.096 8.43085C25.1328 7.12864 23.922 6.05461 22.4978 5.23893C21.526 4.68159 20.5855 4.29736 19.6237 4.06524C18.9308 3.89869 18.44 3.67707 18.0302 3.35053C17.6859 3.07514 17.232 2.90073 16.6786 2.82991C15.805 2.71976 14.9982 2.93876 14.2826 3.48298C13.9738 3.71772 13.7021 3.85411 13.4033 3.92623C12.8313 4.06393 12.3362 4.20818 11.8866 4.36948C10.865 4.73405 9.89041 5.24811 8.99121 5.89725C7.88428 6.69588 6.94951 7.65057 6.20965 8.73378C5.59216 9.63863 5.16817 10.5173 4.91491 11.4195C4.73707 12.0516 4.50088 12.4975 4.14661 12.8646C3.97872 13.0404 3.87343 13.2659 3.77953 13.4692C3.47505 14.1288 3.46082 14.7845 3.73827 15.4179C3.86916 15.7156 4.04132 16.0002 4.23767 16.2402C4.55922 16.6336 4.7456 16.9706 4.84093 17.3325C4.95333 17.7574 5.10984 18.1967 5.30334 18.6347C6.11433 20.4733 7.43183 22.0339 9.2217 23.2692C10.4368 24.1085 11.7713 24.6947 13.1856 25.0107C13.6053 25.1051 13.9909 25.2861 14.3608 25.5667C14.8645 25.947 15.4991 26.1936 15.9757 26.1936C15.9857 26.1936 15.9942 26.1936 16.0041 26.1936C16.8905 26.1936 17.6162 25.9798 18.1597 25.5602C18.514 25.2861 18.891 25.1064 19.3136 25.0107C19.756 24.911 20.19 24.7838 20.6055 24.6343C22.1591 24.0731 23.5449 23.2207 24.7259 22.1021C24.5494 22.1021 24.3759 22.1034 24.2037 22.1034C23.1167 23.0712 21.8632 23.8147 20.4703 24.3183C20.0705 24.4625 19.6522 24.5845 19.2253 24.6816C18.7473 24.7904 18.3205 24.9923 17.9221 25.3005C17.4397 25.673 16.8123 25.8552 16.0041 25.8552C15.9942 25.8552 15.9857 25.8552 15.9757 25.8552C15.6499 25.8552 15.0964 25.6848 14.5942 25.3045C14.1801 24.991 13.7476 24.7865 13.2724 24.6802C11.9065 24.3747 10.6175 23.8082 9.44224 22.9964C9.03816 22.7171 8.65828 22.4194 8.304 22.106C7.82168 22.1007 7.8046 22.0942 7.7918 22.0903L7.85867 21.9316L7.88428 21.769C7.89282 21.7703 7.91131 21.7703 7.9355 21.7716C6.94951 20.8195 6.18262 19.7284 5.64481 18.5115C5.45842 18.0879 5.3076 17.6656 5.19947 17.2565C5.09134 16.8473 4.88504 16.4723 4.53218 16.0408C4.35433 15.8231 4.19783 15.5661 4.07974 15.2946C3.83928 14.7478 3.85209 14.18 4.11957 13.6016C4.20494 13.418 4.29315 13.2279 4.42121 13.0928C4.81532 12.6824 5.07711 12.1932 5.27061 11.5074C5.51391 10.6392 5.92367 9.79207 6.52125 8.91606C7.23691 7.86564 8.14465 6.94111 9.21743 6.16608C10.0882 5.53662 11.0315 5.0396 12.0189 4.68684C12.4557 4.53078 12.938 4.39046 13.4958 4.25539C13.8444 4.17146 14.1673 4.00885 14.5159 3.74526C15.0495 3.34004 15.6157 3.14071 16.2375 3.14071C16.3655 3.14071 16.495 3.14858 16.6273 3.16563C17.1082 3.22595 17.4995 3.37414 17.7883 3.60625C18.2422 3.96951 18.78 4.21211 19.5298 4.39309C20.4561 4.61602 21.3624 4.98714 22.3028 5.52612C23.683 6.31689 24.8568 7.35944 25.7915 8.621C26.493 9.57044 27.0279 10.6864 27.4249 12.0332C27.5231 12.3663 27.7635 12.6679 27.9769 12.9341C28.3611 13.4141 28.5532 13.8652 28.5845 14.3531C28.6229 14.9668 28.4422 15.5084 28.0452 15.9635C27.6767 16.3857 27.4277 16.8408 27.2812 17.3575C27.0663 18.1128 26.7533 18.838 26.3464 19.5291C26.4503 19.5829 26.557 19.638 26.668 19.6957C27.0905 18.9796 27.4149 18.2282 27.6383 17.444C27.7721 16.9745 27.9997 16.5601 28.3341 16.1759C28.7879 15.6553 28.9971 15.0363 28.953 14.3347Z" fill="#261615"/>
<path d="M24.2051 22.1072C24.3773 22.1072 24.5523 22.1059 24.7273 22.1059C24.7486 22.0862 24.77 22.0653 24.7899 22.0456L24.7885 21.7676C24.7159 21.7676 24.6419 21.7676 24.5679 21.7676C24.4498 21.883 24.3289 21.9971 24.2051 22.1072Z" fill="black"/>
<path d="M7.86008 21.9367L7.79321 22.0954C7.80602 22.1007 7.82309 22.1059 8.30542 22.1112C8.17879 21.9997 8.05501 21.8869 7.93549 21.7702C7.9113 21.7702 7.89281 21.7689 7.88427 21.7676L7.86008 21.9367Z" fill="black"/>
<path d="M31.9934 14.2772C31.9465 13.531 31.6505 12.8268 31.0857 12.1186C30.868 11.8459 30.6432 11.5652 30.5692 11.3148C30.0641 9.6021 29.3812 8.17662 28.4791 6.95703C27.284 5.3414 25.7815 4.00772 24.013 2.99402C22.8036 2.3003 21.6298 1.82295 20.4276 1.53182C19.6678 1.34823 19.1357 1.11218 18.7003 0.763352C18.2165 0.376493 17.5877 0.131264 16.8307 0.035533C15.6456 -0.113965 14.5543 0.181097 13.5868 0.915473C13.2695 1.15546 12.9992 1.29446 12.7089 1.36397C12.0046 1.53445 11.3914 1.7128 10.8337 1.91082C9.56171 2.36455 8.34949 3.0032 7.23118 3.81101C5.85818 4.80242 4.69718 5.9866 3.77948 7.33209C3.01118 8.45857 2.48332 9.55489 2.16604 10.684C1.97254 11.3738 1.71928 11.8551 1.34509 12.2445C1.09183 12.5068 0.950975 12.8124 0.822924 13.0891C0.411738 13.9795 0.393241 14.904 0.770281 15.7643C0.942439 16.1564 1.17151 16.5328 1.43046 16.8514C1.77619 17.2763 1.97539 17.633 2.07498 18.0081C2.21584 18.5392 2.41076 19.0874 2.65121 19.6342C3.65855 21.9199 5.29618 23.8569 7.51716 25.3912C9.02958 26.4364 10.6914 27.1655 12.4557 27.5602C12.8967 27.6586 13.2866 27.8448 13.6821 28.1438C14.3779 28.6697 15.2358 28.9962 15.9173 28.9962C15.9301 28.9962 15.9415 28.9962 15.9543 28.9962C17.1338 28.9962 18.107 28.7064 18.8483 28.1333C19.2182 27.8474 19.6109 27.6599 20.0477 27.5615C20.5997 27.4369 21.1418 27.2783 21.6597 27.0907C23.7 26.3537 25.5055 25.2155 27.025 23.7087C27.3167 23.4189 27.5927 23.1225 27.8517 22.8182C27.4974 22.6465 27.0606 22.4366 26.6053 22.2163C26.4175 22.4288 26.2212 22.6373 26.0149 22.8419C24.6362 24.207 23.0014 25.2391 21.156 25.9052C20.695 26.0718 20.2113 26.2134 19.719 26.3249C19.0731 26.4718 18.4983 26.7432 17.9619 27.1576C17.4639 27.5432 16.7994 27.7281 15.923 27.7228C15.6157 27.7228 15.048 27.5287 14.5585 27.1589C14.0037 26.7393 13.4232 26.4665 12.7815 26.3236C11.2008 25.9695 9.70826 25.3138 8.34664 24.3736C6.32913 22.9795 4.84373 21.2249 3.93315 19.1555C3.71688 18.6651 3.5433 18.1772 3.4181 17.7052C3.27155 17.1544 2.99979 16.6547 2.53596 16.0856C2.34673 15.8535 2.18027 15.5781 2.05222 15.287C1.80892 14.7322 1.82315 14.1762 2.09775 13.5808C2.18454 13.392 2.27559 13.1966 2.37946 13.0878C2.90589 12.5409 3.25163 11.8983 3.50346 11.0027C3.78518 10.0021 4.25754 9.02246 4.94902 8.00876C5.78135 6.79311 6.83564 5.71777 8.08343 4.81685C9.09503 4.0864 10.1877 3.50939 11.3317 3.10155C11.8396 2.92058 12.4044 2.75535 13.0575 2.59798C13.5441 2.48127 13.9909 2.25964 14.4632 1.90032C15.0167 1.47937 15.6029 1.27217 16.2431 1.27217C16.374 1.27217 16.5063 1.28135 16.6415 1.2984C17.1281 1.36003 17.5165 1.50429 17.7926 1.72591C18.3958 2.2085 19.1001 2.52848 20.0747 2.76453C21.1418 3.02156 22.1904 3.45169 23.2803 4.07591C24.8852 4.9952 26.2496 6.20692 27.3352 7.67436C28.1491 8.77461 28.7708 10.0742 29.2332 11.6479C29.3741 12.1265 29.6914 12.5226 29.9716 12.8753C30.3771 13.3828 30.5806 13.851 30.6119 14.3506C30.6517 14.988 30.4739 15.5243 30.067 15.9912C29.5818 16.5472 29.2531 17.1478 29.0596 17.8297C28.8078 18.7149 28.4407 19.5634 27.9612 20.3712C28.398 20.5981 28.8178 20.8158 29.1649 20.9954C29.7027 20.0932 30.1139 19.1437 30.3956 18.1523C30.5408 17.6409 30.7784 17.2081 31.144 16.7898C31.7686 16.0751 32.0546 15.2293 31.9934 14.2772Z" fill="#261615"/>
<path d="M28.4467 22.7233L28.4257 22.7131L28.371 22.7233H28.4467Z" fill="white"/>
<path d="M8.72798 11.4812L6.57103 11.3055C6.28789 11.2819 6.08017 11.0524 6.10435 10.7928L6.40456 7.65724C6.43017 7.39628 6.67916 7.20481 6.96088 7.22711L9.11783 7.40283C9.40096 7.42644 9.60869 7.65593 9.5845 7.91558L9.28429 11.0511C9.26011 11.3121 9.0097 11.5049 8.72798 11.4812Z" fill="#261615"/>
<path d="M8.49891 10.9002L6.9068 10.7704C6.75172 10.7573 6.6379 10.6314 6.6507 10.4897L6.88546 8.0453C6.89969 7.90236 7.03628 7.79745 7.18994 7.80926L8.78204 7.93908C8.93713 7.9522 9.05095 8.07809 9.03815 8.21972L8.80339 10.6641C8.79058 10.8071 8.65399 10.912 8.49891 10.9002Z" fill="white"/>
<path d="M8.93858 11.624C8.92435 11.624 8.91012 11.624 8.89589 11.6227L6.37898 11.4181C6.12003 11.3971 5.92937 11.186 5.95214 10.9486L6.28365 7.48003C6.30641 7.24136 6.53406 7.06432 6.79443 7.08661L9.31135 7.29119C9.5703 7.31217 9.76095 7.5233 9.73819 7.76066L9.40668 11.2293C9.39529 11.3447 9.33696 11.4496 9.24021 11.523C9.15484 11.5886 9.04813 11.624 8.93858 11.624ZM8.92008 11.3696C8.97272 11.3735 9.02252 11.3591 9.06236 11.3289C9.1022 11.2988 9.12639 11.2555 9.13065 11.207L9.46359 7.73837C9.47355 7.64002 9.39387 7.55346 9.28716 7.54429L6.77024 7.33971C6.66496 7.33053 6.56821 7.40397 6.55967 7.50232L6.22816 10.9709C6.2182 11.0693 6.29788 11.1558 6.40459 11.165L8.92008 11.3696Z" fill="white"/>
<path d="M11.2648 9.30569L8.79773 8.56738L10.1394 9.89451L11.2648 9.30569Z" fill="#261615"/>
<path d="M81.9078 15.9818V11.7919H87.4738V9.96518H81.9078V6.56213H80.0326V15.9818C80.0326 19.2721 82.9379 21.9499 86.5077 21.9499H87.6943V20.2215H86.5077C83.9723 20.2228 81.9078 18.32 81.9078 15.9818Z" fill="#261615"/>
<path d="M71.2568 11.7383V9.95483H69.2749V21.9199H71.2568V15.3341C71.5954 13.3028 73.5062 11.7409 75.804 11.7409H78.227V10.0138H75.804C74.0327 10.0138 72.4263 10.6735 71.2568 11.7383Z" fill="#261615"/>
<path d="M65.1388 11.8222C63.9622 10.7076 62.3188 10.0138 60.5019 10.0138C56.9322 10.0138 54.0268 12.6917 54.0268 15.982C54.0268 19.2722 56.9322 21.9501 60.5019 21.9501C62.3188 21.9501 63.9607 21.2564 65.1388 20.1417V21.9199H67.1208V9.95483H65.1388V11.8222ZM60.5019 20.223C57.9651 20.223 55.9021 18.3215 55.9021 15.9833C55.9021 13.6451 57.9651 11.7436 60.5019 11.7436C63.0388 11.7436 65.1018 13.6451 65.1018 15.9833C65.1018 18.3215 63.0388 20.223 60.5019 20.223Z" fill="#261615"/>
<path d="M110.56 11.8222C109.383 10.7076 107.74 10.0138 105.923 10.0138C102.353 10.0138 99.448 12.6917 99.448 15.982C99.448 19.2722 102.353 21.9501 105.923 21.9501C107.74 21.9501 109.382 21.2564 110.56 20.1417V21.9199H112.542V9.95483H110.56V11.8222ZM105.923 20.223C103.386 20.223 101.323 18.3215 101.323 15.9833C101.323 13.6451 103.386 11.7436 105.923 11.7436C108.46 11.7436 110.523 13.6451 110.523 15.9833C110.523 18.3215 108.46 20.223 105.923 20.223Z" fill="#261615"/>
<path d="M124.936 11.8221C123.759 10.7074 122.116 10.0137 120.299 10.0137C116.729 10.0137 113.824 12.6916 113.824 15.9818C113.824 19.2721 116.729 21.9499 120.299 21.9499C122.116 21.9499 123.758 21.2562 124.936 20.1415V21.9198H126.918V6.56213H124.936V11.8221ZM120.3 20.2228C117.764 20.2228 115.701 18.3213 115.701 15.9831C115.701 13.6449 117.764 11.7434 120.3 11.7434C122.837 11.7434 124.9 13.6449 124.9 15.9831C124.9 18.3213 122.837 20.2228 120.3 20.2228Z" fill="#261615"/>
<path d="M99.5761 10.0138H97.153C95.3831 10.0138 93.7768 10.6722 92.6058 11.7383V9.95483H90.6238V21.9199H92.6058V15.3341C92.9458 13.3028 94.8552 11.7423 97.153 11.7423H99.5761V10.0138Z" fill="#261615"/>
<path d="M141.5 15.9818C141.5 12.6915 138.595 10.0137 135.025 10.0137C134.972 10.0137 134.921 10.0163 134.868 10.0176V10.0137C131.299 10.0137 128.393 12.6915 128.393 15.9818C128.393 19.2589 131.274 21.9276 134.824 21.9499C134.901 21.9552 135.043 21.9643 135.234 21.9643C136.159 21.9643 138.213 21.7702 139.315 20.1586L137.728 19.238C136.937 20.3959 134.986 20.2294 134.971 20.2281L134.868 20.2228C132.653 20.2228 130.798 18.7711 130.364 16.846H141.5V15.9818ZM130.52 15.1189C130.954 13.1938 132.81 11.7421 135.025 11.7421C137.24 11.7421 139.095 13.1938 139.529 15.1189H130.52Z" fill="#261615"/>
<path d="M54.3029 9.95469H51.5611L46.1631 15.0245H45.8785H43.363V6.56213H41.3811V21.9198H43.363V16.9011H46.1688L51.5611 21.9657H54.3029L47.8847 15.9595L54.3029 9.95469Z" fill="#261615"/>
</g>
<defs>
<clipPath id="clip0_87_51">
<rect width="141" height="29" fill="white" transform="translate(0.5)"/>
</clipPath>
</defs>
</svg>
