<svg width="21" height="21" viewBox="0 0 21 21" fill="none" xmlns="http://www.w3.org/2000/svg">
<g clip-path="url(#clip0_191_180)">
<path d="M15.0198 1.79117C12.7198 0.511168 10.0698 0.191168 7.53978 0.911168C5.00978 1.62117 2.90978 3.28117 1.61978 5.57117C-0.00021708 8.46117 -0.040217 12.0312 1.49978 14.9612L0.789783 19.8012L5.62978 19.1012C7.07978 19.8612 8.64978 20.2312 10.1898 20.2312C13.6398 20.2312 16.9998 18.4112 18.7998 15.1912C21.4598 10.4512 19.7598 4.44117 15.0198 1.79117ZM17.4998 14.4512C15.2498 18.4712 10.1598 19.9112 6.13978 17.6612L5.91978 17.5412L2.56978 18.0312L3.05978 14.6912L2.93978 14.4712C1.52978 11.9612 1.52978 8.83117 2.93978 6.32117C4.02978 4.37117 5.80978 2.97117 7.94978 2.36117C10.0998 1.75117 12.3498 2.02117 14.2898 3.11117C18.2998 5.34117 19.7398 10.4412 17.4998 14.4512Z" fill="#515151"/>
</g>
<defs>
<clipPath id="clip0_191_180">
<rect width="19.68" height="19.69" fill="white" transform="translate(0.379883 0.53125)"/>
</clipPath>
</defs>
</svg>
